<svg width="32" height="33" fill="none" xmlns="http://www.w3.org/2000/svg"><path fill-rule="evenodd" clip-rule="evenodd" d="M2.18 6.667c.875 0 1.585.71 1.585 1.585v.297h7.899c1.147 0 1.668.343 2.572 1.53l1.61 2.235h14.416c.96 0 1.738.793 1.738 1.771v11.516c0 .978-.778 1.771-1.738 1.771H11.15c-.96 0-1.737-.793-1.737-1.771V20.35H8.03c-.828 0-1.617-.377-2.35-.994a6.397 6.397 0 0 1-.465-.432l-.25-.272-.06-.07-1.175.001c-.15.72-.788 1.26-1.551 1.26h-.595C.71 19.843 0 19.133 0 18.258V8.252c0-.876.71-1.586 1.585-1.586h.595Zm1.585 10.975H5.37l.172.232.101.123a5.542 5.542 0 0 0 .643.639c.522.438 1.058.714 1.574.764l.17.009h1.382V16.78h-.627c-1.04 0-1.778-.358-2.219-.98l-.09-.136a2.477 2.477 0 0 1-.354-1.185l-.004-.168h.94c0 .29.057.59.224.866.23.381.635.62 1.312.657l.191.005h1.83l1.473 1.344c.533.388 1.327.398 1.97.086.5-.243.608-.469.451-.612l-3.22-2.93.005-1.203v-.211h3.443l-1.208-1.676c-.734-.963-1.029-1.157-1.865-1.157h-7.9v8.161ZM2.18 7.46h-.595a.793.793 0 0 0-.786.693l-.006.1v10.006c0 .404.302.737.693.786l.1.006h.594a.793.793 0 0 0 .786-.693l.006-.1V8.253a.793.793 0 0 0-.693-.787l-.1-.006Zm8.173 18.094v-8.679l1.141 1.038.168.114c.855.53 1.93.516 2.806.091 1.008-.489 1.461-1.439.675-2.155l-2.977-2.707h18.03a.87.87 0 0 1 .863.878v11.42a.87.87 0 0 1-.863.878h-18.98a.87.87 0 0 1-.863-.878Z" fill="#052E5C"/><circle cx="20.706" cy="19.843" r="4.706" fill="#0B74E5"/><path d="m21.593 19.69-1.544-.372c-.228-.056-.389-.234-.389-.435 0-.249.24-.451.535-.451h.965c.216 0 .42.056.592.161a.23.23 0 0 0 .257-.026l.299-.252c.091-.077.077-.203-.026-.27-.32-.207-.71-.32-1.122-.32h-.036v-.53c0-.097-.093-.176-.209-.176h-.418c-.116 0-.21.08-.21.177v.53h-.091c-.8 0-1.442.58-1.366 1.267.054.49.498.885 1.057 1.02l1.476.355c.229.056.389.234.389.435 0 .25-.24.452-.535.452h-.965c-.216 0-.42-.057-.592-.162a.23.23 0 0 0-.257.026l-.299.252c-.091.077-.077.203.026.27.32.207.71.32 1.122.32h.036v.529c0 .098.093.177.209.177h.418c.116 0 .21-.08.21-.177v-.53h.035c.596 0 1.159-.3 1.352-.775.265-.654-.19-1.32-.919-1.495Z" fill="#fff"/></svg>