<svg width="32" height="33" fill="none" xmlns="http://www.w3.org/2000/svg"><path opacity=".01" fill="#fff" d="M0 5.667h32V27H0z"/><path d="M29.562 22.609a4.254 4.254 0 0 1-4.248 4.248H2.2V10.032a4.254 4.254 0 0 1 4.248-4.248h23.114v16.825Z" fill="#fff"/><path d="M22.036 18.294h1.756c.05 0 .167-.017.217-.017a.784.784 0 0 0 .619-.786.812.812 0 0 0-.619-.786c-.05-.017-.15-.017-.217-.017h-1.756v1.606Z" fill="url(#a)"/><path d="M23.59 7.205a3.044 3.044 0 0 0-3.043 3.044v3.161h4.298c.1 0 .218 0 .301.017.97.05 1.69.552 1.69 1.421 0 .686-.485 1.271-1.389 1.388v.034c.987.067 1.74.619 1.74 1.472 0 .92-.837 1.522-1.94 1.522H20.53v6.188h4.466a3.044 3.044 0 0 0 3.044-3.044V7.205h-4.45Z" fill="url(#b)"/><path d="M24.41 15.05a.712.712 0 0 0-.618-.72c-.034 0-.117-.017-.168-.017h-1.588v1.472h1.588c.05 0 .151 0 .168-.017a.711.711 0 0 0 .619-.719Z" fill="url(#c)"/><path d="M6.766 7.205a3.044 3.044 0 0 0-3.044 3.044v7.51c.853.418 1.74.685 2.626.685 1.054 0 1.622-.635 1.622-1.505v-3.546h2.61v3.53c0 1.37-.854 2.491-3.747 2.491-1.756 0-3.127-.384-3.127-.384v6.405H8.17a3.044 3.044 0 0 0 3.044-3.044V7.205H6.766Z" fill="url(#d)"/><path d="M15.179 7.205a3.044 3.044 0 0 0-3.044 3.044v3.98c.77-.652 2.107-1.07 4.265-.97 1.154.05 2.391.368 2.391.368v1.288c-.619-.317-1.355-.602-2.308-.669-1.639-.117-2.626.686-2.626 2.09 0 1.423.987 2.225 2.626 2.091.953-.066 1.69-.367 2.308-.668v1.287s-1.22.318-2.391.368c-2.158.1-3.496-.318-4.265-.97v7.025H16.6a3.044 3.044 0 0 0 3.044-3.044V7.205H15.18Z" fill="url(#e)"/><defs><linearGradient id="a" x1="20.544" y1="19.82" x2="28.06" y2="19.82" gradientUnits="userSpaceOnUse"><stop stop-color="#007940"/><stop offset=".229" stop-color="#00873F"/><stop offset=".743" stop-color="#40A737"/><stop offset="1" stop-color="#5CB531"/></linearGradient><linearGradient id="b" x1="20.544" y1="25.453" x2="28.06" y2="25.453" gradientUnits="userSpaceOnUse"><stop stop-color="#007940"/><stop offset=".229" stop-color="#00873F"/><stop offset=".743" stop-color="#40A737"/><stop offset="1" stop-color="#5CB531"/></linearGradient><linearGradient id="c" x1="20.544" y1="17.375" x2="28.06" y2="17.375" gradientUnits="userSpaceOnUse"><stop stop-color="#007940"/><stop offset=".229" stop-color="#00873F"/><stop offset=".743" stop-color="#40A737"/><stop offset="1" stop-color="#5CB531"/></linearGradient><linearGradient id="d" x1="3.718" y1="25.585" x2="11.351" y2="25.585" gradientUnits="userSpaceOnUse"><stop stop-color="#1F286F"/><stop offset=".475" stop-color="#004E94"/><stop offset=".826" stop-color="#0066B1"/><stop offset="1" stop-color="#006FBC"/></linearGradient><linearGradient id="e" x1="12.091" y1="25.335" x2="19.504" y2="25.335" gradientUnits="userSpaceOnUse"><stop stop-color="#6C2C2F"/><stop offset=".173" stop-color="#882730"/><stop offset=".573" stop-color="#BE1833"/><stop offset=".859" stop-color="#DC0436"/><stop offset="1" stop-color="#E60039"/></linearGradient></defs></svg>