<svg width="32" height="33" fill="none" xmlns="http://www.w3.org/2000/svg"><path fill-rule="evenodd" clip-rule="evenodd" d="M30 10.361a2.695 2.695 0 0 0-2.695-2.695H4.695A2.695 2.695 0 0 0 2 10.361v12.61a2.695 2.695 0 0 0 2.695 2.695h22.61A2.695 2.695 0 0 0 30 22.971v-12.61ZM4.695 8.666h22.61l.146.007A1.695 1.695 0 0 1 29 10.36v12.61l-.006.147a1.695 1.695 0 0 1-1.689 1.549H4.695l-.146-.007A1.695 1.695 0 0 1 3 22.971v-12.61l.006-.146a1.695 1.695 0 0 1 1.689-1.549Z" fill="#052E5C"/><path fill-rule="evenodd" clip-rule="evenodd" d="m8.675 20.275-.53 1.606H7l2.205-6.215h1.253l2.205 6.215h-1.171l-.53-1.606H8.675Zm.259-.857h1.765l-.865-2.653h-.03l-.87 2.653Zm7.02 2.463v-5.276h1.856v-.939h-4.824v.94h1.86v5.275h1.107Zm3.617-4.41v4.41h-1.003v-6.215h1.287l1.904 4.742h.034l1.904-4.742h1.283v6.215h-.999v-4.41h-.03l-1.796 4.41h-.758l-1.796-4.41h-.03Z" fill="#052E5C"/><rect x="22" y="10.666" width="5" height="3" rx="1" fill="#0B74E5"/></svg>