<svg width="32" height="33" fill="none" xmlns="http://www.w3.org/2000/svg"><path opacity=".01" fill="#fff" d="M1 6.667h30v20H1z"/><path fill="#FF5F00" d="M12.388 10.125h7.179V23.05h-7.179z"/><path d="M12.843 16.589a8.21 8.21 0 0 1 3.134-6.464 8.195 8.195 0 0 0-11.098.887 8.23 8.23 0 0 0 0 11.152 8.195 8.195 0 0 0 11.098.886 8.21 8.21 0 0 1-3.134-6.461Z" fill="#EB001B"/><path d="M29.254 16.589a8.22 8.22 0 0 1-4.62 7.393 8.194 8.194 0 0 1-8.657-.932 8.224 8.224 0 0 0 3.136-6.462 8.224 8.224 0 0 0-3.136-6.463 8.194 8.194 0 0 1 8.657-.931 8.22 8.22 0 0 1 4.62 7.393v.002Z" fill="#F79E1B"/></svg>