<svg width="32" height="32" fill="none" xmlns="http://www.w3.org/2000/svg"><path d="M16 32c8.837 0 16-7.163 16-16S24.837 0 16 0 0 7.163 0 16s7.163 16 16 16Z" fill="#E03"/><path d="M14.256 5.975h-2.163a2.066 2.066 0 0 0-2.066 2.067v15.92a2.066 2.066 0 0 0 2.066 2.067h2.163a.516.516 0 0 0 .516-.517v-1.546a.517.517 0 0 0-.516-.517h-3.357V8.552h3.357a.517.517 0 0 0 .512-.52v-1.54a.517.517 0 0 0-.512-.517ZM19.907 5.975h-2.163a.517.517 0 0 0-.515.517v1.54a.517.517 0 0 0 .515.517h3.358V23.45h-3.358a.517.517 0 0 0-.515.517v1.543a.517.517 0 0 0 .515.517h2.163a2.066 2.066 0 0 0 2.07-2.069V8.042a2.067 2.067 0 0 0-2.07-2.067Z" fill="#fff"/></svg>