<svg width="68" height="33" fill="none" xmlns="http://www.w3.org/2000/svg"><g clip-path="url(#a)"><path d="M3.278 10.31H1.543c-.765 0-1.082-.606-1.082-1.195 0-.607.398-1.195 1.082-1.195H7.4c.684 0 1.082.588 1.082 1.195 0 .59-.318 1.194-1.082 1.194H5.667v8.693c0 .865-.51 1.349-1.195 1.349-.686 0-1.194-.484-1.194-1.349V10.31ZM10.063 9.266c0-.859.549-1.338 1.286-1.338.738 0 1.287.48 1.287 1.338v9.748c0 .857-.55 1.337-1.287 1.337-.737 0-1.286-.48-1.286-1.337V9.266ZM14.105 9.196c0-.702.514-1.268 1.287-1.268.737 0 1.285.48 1.285 1.268v3.708l4.22-4.497a1.348 1.348 0 0 1 .995-.479 1.246 1.246 0 0 1 1.269 1.235c0 .445-.275.807-.84 1.372l-3.242 3.192 3.967 4.137c.41.41.72.789.72 1.302 0 .807-.636 1.184-1.339 1.184-.497 0-.823-.29-1.303-.805l-4.44-4.806v4.377c0 .67-.514 1.234-1.285 1.234-.738 0-1.286-.48-1.286-1.234l-.008-9.92ZM25.13 9.269c0-.858.55-1.337 1.286-1.337.737 0 1.287.479 1.287 1.337v9.742c0 .856-.55 1.336-1.287 1.336-.736 0-1.286-.48-1.286-1.336V9.269ZM11.228 6.262a2.34 2.34 0 0 1-2.253-2.986h4.504a2.338 2.338 0 0 1-2.252 2.986h.001ZM11.226.667a3.059 3.059 0 0 0-3 3.658 3.062 3.062 0 0 0 4.17 2.232 3.06 3.06 0 0 0 1.658-4 3.062 3.062 0 0 0-2.828-1.89ZM26.304 6.262a2.34 2.34 0 0 1-2.253-2.986h4.503a2.303 2.303 0 0 1-.084 1.54 2.344 2.344 0 0 1-2.164 1.446h-.002Zm.002-5.595a3.059 3.059 0 0 0-3.002 3.658 3.062 3.062 0 0 0 4.172 2.232 3.06 3.06 0 0 0-1.17-5.89ZM30.496 9.655v10.34a.433.433 0 1 1-.866 0V8.41a.436.436 0 0 1 .163-.487.45.45 0 0 1 .613.108l7.65 10.611V8.356a.442.442 0 1 1 .884 0v11.64a.445.445 0 0 1-.452.433.42.42 0 0 1-.343-.162c-.018-.018-.053-.037-.071-.073L30.496 9.655ZM47.072 7.877c3.4 0 6.074 2.811 6.092 6.276-.018 3.465-2.69 6.276-6.092 6.276-3.437 0-6.127-2.811-6.146-6.276.019-3.465 2.71-6.276 6.146-6.276Zm0 11.686c2.802 0 5.163-2.387 5.182-5.405-.017-3.059-2.381-5.392-5.182-5.392-2.89 0-5.255 2.333-5.255 5.392 0 3.018 2.364 5.405 5.255 5.405ZM54.793 8.115l2.377 10.737 3.464-9.946c.068-.162.189-.271.314-.271a.387.387 0 0 1 .34.271l3.65 9.946 2.173-10.737c.082-.216.26-.325.45-.216.165.09.246.36.165.577l-2.474 11.657a.427.427 0 0 1-.273.29h-.068a.224.224 0 0 1-.164-.073.246.246 0 0 1-.054-.072.548.548 0 0 1-.055-.109.078.078 0 0 0-.014-.054l-3.663-9.982-3.478 9.982c0 .032-.009.064-.027.09a.325.325 0 0 1-.068.127c-.014 0-.027.018-.027.018a.26.26 0 0 1-.19.072.29.29 0 0 1-.204-.094l-.028-.036-.013-.018a.46.46 0 0 1-.082-.216L54.192 8.476c-.081-.216 0-.487.164-.577.164-.109.369 0 .437.216ZM63.522 23.708H4.478A4.478 4.478 0 0 0 0 28.188a4.478 4.478 0 0 0 4.478 4.479h59.044A4.478 4.478 0 0 0 68 28.186a4.478 4.478 0 0 0-4.478-4.48Z" fill="#1AA7FF"/><path d="M4.061 29.283h.989a.593.593 0 0 0 .212.472.74.74 0 0 0 .496.17.719.719 0 0 0 .253-.045.65.65 0 0 0 .364-.345.611.611 0 0 0 .048-.252.714.714 0 0 0-.135-.442 1.045 1.045 0 0 0-.337-.26 3.6 3.6 0 0 0-.418-.162 4.339 4.339 0 0 1-.473-.176 1.392 1.392 0 0 1-.705-.745 1.484 1.484 0 0 1-.08-.262 1.256 1.256 0 0 1-.028-.268 1.365 1.365 0 0 1 .442-1.04 1.494 1.494 0 0 1 1.063-.416 1.465 1.465 0 0 1 1.045.429 1.363 1.363 0 0 1 .449 1.022H6.27a.49.49 0 0 0-.172-.378.579.579 0 0 0-.401-.155.472.472 0 0 0-.365.153.554.554 0 0 0-.138.387.496.496 0 0 0 .121.334c.095.108.268.202.52.284.294.1.469.163.523.189.17.072.329.167.472.283a1.405 1.405 0 0 1 .543 1.169 1.532 1.532 0 0 1-.487 1.145 1.625 1.625 0 0 1-1.172.473 1.659 1.659 0 0 1-1.153-.453 1.446 1.446 0 0 1-.5-1.111ZM8.025 30.721v-5.102h1.292l1.37 3.904 1.386-3.904h1.285v5.102h-.944v-3.83l-1.322 3.83h-.804l-1.322-3.83v3.83h-.941ZM13.82 30.721l2.129-5.102h.738l2.15 5.102h-1.04l-.553-1.323h-1.811l-.567 1.323H13.82Zm1.96-2.241h1.092l-.546-1.546-.546 1.546ZM19.356 30.721v-5.102h1.481c.144 0 .274 0 .391.013.104.007.206.021.307.043.231.05.447.154.63.305.182.153.328.344.429.56a1.578 1.578 0 0 1 .135.985 1.799 1.799 0 0 1-.094.307c-.065.188-.167.36-.299.508-.12.13-.263.24-.42.322a2.16 2.16 0 0 1-.49.176l1.38 1.89h-1.163l-1.34-1.965v1.958h-.947Zm.945-2.677h.517c.133.003.266-.01.397-.037a.77.77 0 0 0 .358-.176.735.735 0 0 0 .232-.553c.001-.11-.022-.22-.067-.32a.661.661 0 0 0-.21-.256.844.844 0 0 0-.485-.163 2.876 2.876 0 0 0-.219-.007h-.52l-.003 1.512ZM23.883 30.721v-4.185h-.944v-.918h2.84v.918h-.952v4.189l-.944-.004ZM30.49 30.759v-5.131h.952v4.209h1.57v.922H30.49ZM35.953 25.53a2.675 2.675 0 0 1 2.63 2.151 2.679 2.679 0 0 1-3.4 3.09 2.676 2.676 0 0 1-1.119-4.456 2.57 2.57 0 0 1 1.89-.785Zm0 .922a1.648 1.648 0 0 0-1.218.51 1.694 1.694 0 0 0-.504 1.229 1.719 1.719 0 0 0 .51 1.237 1.66 1.66 0 0 0 2.424 0 1.72 1.72 0 0 0 .51-1.238 1.686 1.686 0 0 0-.503-1.234 1.65 1.65 0 0 0-1.219-.504ZM44.322 27.134h-1.133a1.56 1.56 0 0 0-.593-.499 1.678 1.678 0 0 0-.755-.183 1.755 1.755 0 0 0-1.619 1.029c-.104.22-.158.46-.16.704-.002.219.042.435.126.637.085.207.209.396.365.556a1.815 1.815 0 0 0 1.329.576 1.65 1.65 0 0 0 .866-.253c.269-.16.488-.391.632-.669h-2.145v-.89h3.345v.113a2.494 2.494 0 0 1-.814 1.878 2.81 2.81 0 0 1-3.84-.01 2.52 2.52 0 0 1-.818-1.9 2.562 2.562 0 0 1 .805-1.908 2.657 2.657 0 0 1 1.923-.785 2.752 2.752 0 0 1 1.489.43c.451.272.802.684.997 1.174ZM45.203 30.759v-5.131h.953v5.13h-.953ZM46.773 29.314h.992a.6.6 0 0 0 .214.473c.14.114.317.175.498.169a.662.662 0 0 0 .471-.18.613.613 0 0 0 .197-.465.716.716 0 0 0-.136-.444 1.038 1.038 0 0 0-.338-.26 3.59 3.59 0 0 0-.42-.164 4.388 4.388 0 0 1-.473-.176 1.482 1.482 0 0 1-.415-.295 1.517 1.517 0 0 1-.374-.717 1.341 1.341 0 0 1-.027-.27 1.37 1.37 0 0 1 .443-1.04c.287-.275.671-.425 1.069-.418a1.474 1.474 0 0 1 1.05.43 1.37 1.37 0 0 1 .445 1.03h-.976a.493.493 0 0 0-.174-.377.583.583 0 0 0-.603-.119.47.47 0 0 0-.166.118.555.555 0 0 0-.138.387.502.502 0 0 0 .121.337c.095.108.27.204.523.288.295.1.47.164.525.189.17.072.329.167.472.283a1.411 1.411 0 0 1 .543 1.167 1.54 1.54 0 0 1-.488 1.15 1.637 1.637 0 0 1-1.178.473 1.666 1.666 0 0 1-1.16-.455 1.453 1.453 0 0 1-.497-1.114ZM51.277 30.759V26.55h-.944v-.922h2.854v.922h-.96v4.209h-.95ZM53.67 30.759v-5.131h.953v5.13h-.953ZM59.286 29.361h1.102a2.355 2.355 0 0 1-.963 1.113 2.63 2.63 0 0 1-1.416.41 2.538 2.538 0 0 1-1.88-.795 2.613 2.613 0 0 1-.777-1.9 2.57 2.57 0 0 1 .779-1.874 2.524 2.524 0 0 1 1.854-.785 2.712 2.712 0 0 1 1.463.422c.438.266.778.666.97 1.14h-1.084a1.755 1.755 0 0 0-1.346-.64 1.584 1.584 0 0 0-1.191.522 1.746 1.746 0 0 0-.5 1.249 1.689 1.689 0 0 0 .505 1.215 1.607 1.607 0 0 0 1.19.52c.238 0 .474-.051.69-.152.23-.107.434-.258.604-.445ZM60.653 29.314h.993a.598.598 0 0 0 .213.473c.14.114.317.175.498.169a.655.655 0 0 0 .62-.39.617.617 0 0 0 .049-.255.717.717 0 0 0-.136-.444 1.04 1.04 0 0 0-.34-.26 3.53 3.53 0 0 0-.42-.164 4.359 4.359 0 0 1-.472-.176 1.473 1.473 0 0 1-.415-.295 1.524 1.524 0 0 1-.375-.717 1.34 1.34 0 0 1-.027-.27 1.368 1.368 0 0 1 .444-1.04c.287-.275.67-.425 1.068-.418a1.473 1.473 0 0 1 1.05.43 1.372 1.372 0 0 1 .45 1.03h-.98a.495.495 0 0 0-.173-.377.582.582 0 0 0-.403-.156.472.472 0 0 0-.367.155.555.555 0 0 0-.139.387.502.502 0 0 0 .122.337c.095.108.27.204.523.288.295.1.472.164.525.189.17.072.328.167.472.283a1.411 1.411 0 0 1 .542 1.167 1.54 1.54 0 0 1-.487 1.15 1.633 1.633 0 0 1-1.178.473 1.666 1.666 0 0 1-1.159-.455 1.452 1.452 0 0 1-.498-1.114Z" fill="#fff"/></g><defs><clipPath id="a"><path fill="#fff" transform="translate(0 .667)" d="M0 0h68v32H0z"/></clipPath></defs></svg>