<svg width="32" height="32" fill="none" xmlns="http://www.w3.org/2000/svg"><path fill-rule="evenodd" clip-rule="evenodd" d="M5.5 10.5C5.5 4.701 10.201 0 16 0s10.5 4.701 10.5 10.5S21.799 21 16 21 5.5 16.299 5.5 10.5ZM16 1a9.5 9.5 0 1 0 0 19 9.5 9.5 0 0 0 0-19Z" fill="#052E5C"/><path fill-rule="evenodd" clip-rule="evenodd" d="M22.465 7.702a.5.5 0 0 1 0 .707l-4.89 4.889a.5.5 0 0 1-.706-.707l4.889-4.889a.5.5 0 0 1 .707 0Z" fill="#0B74E5"/><path d="M18.555 8.055a.722.722 0 1 1-1.444 0 .722.722 0 0 1 1.444 0ZM22.222 12.944a.722.722 0 1 1-1.444 0 .722.722 0 0 1 1.444 0Z" fill="#0B74E5" stroke="#0B74E5"/><path fill-rule="evenodd" clip-rule="evenodd" d="M10.854 8.292c-.326.615-.465 1.442-.465 2.208 0 .766.139 1.592.465 2.208.314.593.777.959 1.48.959.702 0 1.164-.366 1.479-.959.326-.616.465-1.442.465-2.208 0-.766-.14-1.593-.465-2.208-.314-.593-.777-.959-1.48-.959s-1.165.366-1.479.959Zm-.884-.468c.443-.835 1.203-1.49 2.363-1.49s1.92.655 2.363 1.49c.43.811.582 1.818.582 2.676 0 .858-.152 1.865-.582 2.676-.442.835-1.202 1.49-2.363 1.49-1.16 0-1.92-.655-2.362-1.49-.43-.811-.582-1.818-.582-2.676 0-.858.151-1.865.581-2.676Z" fill="#0B74E5"/><path d="M4.398 26.143H2.67v4.78h-.955v-4.78H0v-.779h4.398v.78ZM7.167 28.782H6.093v2.142h-.964v-5.56h1.95c.64 0 1.134.144 1.482.432.347.288.521.704.521 1.248 0 .372-.09.684-.27.936a1.7 1.7 0 0 1-.747.576l1.246 2.318v.05H8.279l-1.112-2.142Zm-1.074-.775h.99c.325 0 .579-.082.762-.245.182-.165.274-.39.274-.675 0-.298-.085-.529-.255-.692-.168-.162-.42-.247-.754-.252H6.093v1.864ZM13.1 29.63h-2.148l-.45 1.294h-1l2.094-5.56h.864l2.098 5.56h-1.005l-.453-1.295Zm-1.878-.78h1.607l-.803-2.306-.804 2.306Zm.488-3.92-.027-.558c.185-.013.319-.037.4-.073a.19.19 0 0 0 .126-.187c0-.183-.19-.275-.572-.275l.027-.47c.43 0 .752.067.967.2.219.132.328.31.328.534 0 .152-.05.279-.149.378a.717.717 0 0 1-.422.187v.263h-.678ZM21.382 30.202c-.2.262-.478.46-.834.596a3.394 3.394 0 0 1-1.21.202 2.38 2.38 0 0 1-1.234-.317 2.123 2.123 0 0 1-.83-.905c-.194-.394-.294-.854-.301-1.378v-.435c0-.84.2-1.496.601-1.967.401-.473.961-.71 1.68-.71.616 0 1.106.153 1.47.458.363.306.58.746.654 1.321h-.944c-.107-.669-.494-1.004-1.161-1.004-.432 0-.76.157-.987.47-.223.31-.339.767-.346 1.37v.428c0 .6.125 1.068.377 1.401.254.331.605.497 1.055.497.492 0 .843-.112 1.05-.336v-1.088H19.28v-.733h2.102v2.13ZM26.866 28.29c0 .544-.094 1.022-.282 1.435-.188.41-.457.725-.807.947a2.211 2.211 0 0 1-1.204.328c-.449 0-.85-.11-1.203-.328a2.196 2.196 0 0 1-.815-.943c-.19-.408-.287-.877-.29-1.41v-.312c0-.543.096-1.021.286-1.436.193-.415.464-.732.812-.95.35-.222.751-.333 1.203-.333.452 0 .852.11 1.2.328.35.217.62.53.81.94.19.407.287.882.29 1.424v.31Zm-.963-.291c0-.616-.117-1.088-.35-1.416-.232-.329-.56-.493-.987-.493-.416 0-.743.164-.979.492-.233.326-.353.788-.358 1.386v.321c0 .611.118 1.083.354 1.417.239.333.57.5.99.5.427 0 .755-.163.983-.489.231-.326.346-.802.346-1.428V28Zm-1.055-4.123h1.055l-1.055 1.156h-.743l.743-1.157ZM28.789 28.858v2.066h-.963v-5.56h2.12c.62 0 1.111.162 1.474.485.366.324.549.751.549 1.283 0 .545-.18.969-.537 1.272-.356.303-.854.454-1.497.454H28.79Zm0-.775h1.158c.342 0 .604-.08.784-.24.18-.163.27-.398.27-.703 0-.3-.09-.54-.274-.718-.183-.18-.434-.274-.754-.279H28.79v1.94Z" fill="#052E5C"/></svg>