<svg width="32" height="33" fill="none" xmlns="http://www.w3.org/2000/svg"><path d="m7.846 7.932 19.06-2.787a6.041 6.041 0 0 0-3.966-1.478H9.06A6.058 6.058 0 0 0 3 9.724v13.868a6.063 6.063 0 0 0 5.067 5.98L5.544 11.019a2.74 2.74 0 0 1 2.302-3.086Z" fill="#0068FF"/><path d="M26.906 5.146 7.846 7.932C6.38 8.147 5.337 9.54 5.55 11.026l2.516 18.555c.322.05.658.086.993.086h13.88A6.058 6.058 0 0 0 29 23.608V9.718a6.034 6.034 0 0 0-2.094-4.572Z" fill="#fff"/><path d="m26.906 5.146-.064.014c1.308 1.143 2.094 2.83 2.094 4.566v13.853a6.026 6.026 0 0 1-6.018 6.017H9.053a6.84 6.84 0 0 1-1-.086l.007.071c.336.057.657.086.986.086h13.85c3.36 0 6.09-2.73 6.09-6.088V9.72a5.97 5.97 0 0 0-2.08-4.573Z" fill="#B3B3B3"/><path d="M19.194 12.29a.593.593 0 0 0-.45-.185c-.257 0-.45.122-.565.379-.257-.307-.614-.45-1.064-.45-.544 0-.994.214-1.373.614-.378.429-.543.922-.543 1.515 0 .593.186 1.107.543 1.515.38.428.83.614 1.373.614.45 0 .8-.143 1.064-.45.122.257.308.379.565.379a.632.632 0 0 0 .45-.186c.122-.114.165-.257.165-.45v-2.908c.021-.1-.05-.265-.165-.386Zm-1.286 2.623a.747.747 0 0 1-.615.286c-.257 0-.471-.093-.614-.286a1.177 1.177 0 0 1-.236-.736c0-.286.071-.521.236-.707a.747.747 0 0 1 .614-.286c.258 0 .472.093.615.286.143.186.236.428.236.707-.022.286-.093.558-.236.736ZM20.767 16.07a.592.592 0 0 1-.45.186.632.632 0 0 1-.451-.186c-.122-.122-.164-.257-.164-.45v-5.202c0-.164.05-.307.164-.45a.592.592 0 0 1 .45-.186c.186 0 .329.072.45.186.122.122.165.258.165.45v5.202c.007.193-.043.336-.165.45ZM24.854 12.67c-.4-.43-.9-.615-1.515-.615a2.07 2.07 0 0 0-1.515.615c-.379.4-.593.921-.593 1.536 0 .614.186 1.107.593 1.536.379.4.9.614 1.515.614a2.07 2.07 0 0 0 1.515-.614c.38-.4.565-.922.565-1.515.036-.636-.15-1.15-.565-1.557Zm-.871 2.243a.747.747 0 0 1-.615.286c-.257 0-.472-.093-.615-.286a1.177 1.177 0 0 1-.236-.736c0-.286.072-.521.236-.707a.747.747 0 0 1 .615-.286c.257 0 .472.093.615.286.142.186.235.428.235.707-.021.286-.093.558-.235.736Z" fill="#0068FF"/><path d="M14.513 12.198c.429-.565.665-.944.665-1.136 0-.45-.286-.686-.85-.686h-3.002c-.236 0-.43.05-.543.164a.579.579 0 0 0-.186.429c0 .185.071.328.186.428.121.122.307.165.543.165h2.058l-2.644 3.4c-.165.215-.258.43-.258.594 0 .493.33.736.994.736h3.094c.493 0 .736-.215.736-.615 0-.429-.235-.614-.736-.614h-2.272l2.215-2.865Z" fill="#0068FF"/><path d="M13.041 19.557h-.779v1.608h.78c.235 0 .428-.071.564-.236a.806.806 0 0 0 .214-.564c0-.236-.071-.429-.214-.565-.136-.171-.322-.243-.565-.243ZM16.9 21.036a.707.707 0 0 0-.564.257c-.143.186-.215.4-.215.665 0 .264.072.493.215.664.142.186.328.257.564.257a.707.707 0 0 0 .565-.257c.143-.186.214-.4.214-.665a1.03 1.03 0 0 0-.214-.664.739.739 0 0 0-.565-.257Z" fill="#39B54A"/><path d="M22.339 17.263H11.147a.686.686 0 0 0-.686.686v6.545c0 .378.307.686.686.686h8.82c-.094-.093-.144-.186-.144-.308 0-.093.022-.185.072-.307l.428-.922-1.157-2.886c-.022-.072-.05-.164-.05-.257 0-.122.05-.236.164-.308a.474.474 0 0 1 .329-.142c.257 0 .429.121.521.378l.708 1.965.758-1.965c.093-.236.257-.378.521-.378.122 0 .236.05.33.142.092.093.163.186.163.308a.716.716 0 0 1-.05.257l-1.7 4.137a.836.836 0 0 1-.165.286h1.63a.686.686 0 0 0 .686-.686v-6.545a.665.665 0 0 0-.672-.686Zm-7.897 4.394c-.358.329-.8.472-1.322.472h-.85v1.229c0 .185-.051.328-.165.428a.571.571 0 0 1-.4.165c-.165 0-.308-.05-.4-.165a.63.63 0 0 1-.165-.428v-4.252c0-.4.186-.593.593-.593h1.35c.565 0 1.016.165 1.394.493.358.33.544.78.544 1.3-.015.587-.208 1.015-.58 1.351Zm4.366 1.68c0 .163-.05.285-.164.4a.509.509 0 0 1-.4.164c-.236 0-.429-.122-.543-.358-.236.286-.565.43-.994.43-.493 0-.922-.187-1.25-.565a2.101 2.101 0 0 1-.522-1.415c0-.564.164-1.015.521-1.415a1.598 1.598 0 0 1 1.251-.564c.429 0 .736.143.994.428.121-.235.285-.357.543-.357.164 0 .307.05.4.165a.509.509 0 0 1 .164.4v2.686Z" fill="#39B54A"/></svg>