<svg width="32" height="33" fill="none" xmlns="http://www.w3.org/2000/svg"><mask id="a" style="mask-type:alpha" maskUnits="userSpaceOnUse" x="3" y="3" width="26" height="27"><path d="M10.692 3.667h10.616c2.675 0 3.645.278 4.622.8A5.452 5.452 0 0 1 28.2 6.737c.522.978.801 1.948.801 4.622v10.617c0 2.674-.279 3.644-.801 4.622a5.452 5.452 0 0 1-2.269 2.268c-.977.523-1.947.802-4.622.802H10.692c-2.675 0-3.645-.279-4.623-.802a5.452 5.452 0 0 1-2.268-2.268C3.278 25.619 3 24.649 3 21.975V11.358c0-2.674.278-3.644.801-4.622A5.452 5.452 0 0 1 6.07 4.468c.978-.523 1.948-.801 4.623-.801Z" fill="#fff"/></mask><g mask="url(#a)"><path d="M10.692 3.667h10.616c2.675 0 3.645.278 4.622.8A5.452 5.452 0 0 1 28.2 6.737c.522.978.801 1.948.801 4.622v10.617c0 2.674-.279 3.644-.801 4.622a5.452 5.452 0 0 1-2.269 2.268c-.977.523-1.947.802-4.622.802H10.692c-2.675 0-3.645-.279-4.623-.802a5.452 5.452 0 0 1-2.268-2.268C3.278 25.619 3 24.649 3 21.975V11.358c0-2.674.278-3.644.801-4.622A5.452 5.452 0 0 1 6.07 4.468c.978-.523 1.948-.801 4.623-.801Z" fill="#A50064"/><path d="M21.162 8.666c-2.12 0-3.837 1.616-3.837 3.61 0 1.993 1.718 3.609 3.837 3.609 2.12 0 3.838-1.616 3.838-3.61 0-1.993-1.718-3.609-3.838-3.609Zm0 5.15c-.899 0-1.63-.687-1.63-1.533 0-.845.731-1.532 1.63-1.532.9 0 1.63.687 1.63 1.532 0 .846-.73 1.533-1.63 1.533Zm-4.945 2.077h-2.208v-4.538c0-.34-.29-.612-.65-.612-.362 0-.65.272-.65.612v4.538H10.5v-4.538c0-.34-.29-.612-.65-.612-.362 0-.651.272-.651.612v4.538H7v-4.516c0-1.495 1.293-2.71 2.882-2.71.65 0 1.245.203 1.726.543.556-.362 1.132-.544 1.726-.544 1.59 0 2.883 1.216 2.883 2.711v4.516Zm4.945 1.555c-2.12 0-3.837 1.616-3.837 3.61 0 1.993 1.718 3.608 3.837 3.608 2.12 0 3.838-1.616 3.838-3.609 0-1.993-1.718-3.61-3.838-3.61v.001Zm-7.827-.008c1.59 0 2.882 1.215 2.882 2.71v4.516h-2.208v-4.538c0-.34-.29-.611-.65-.611-.362 0-.65.271-.65.61v4.539H10.5v-4.538c0-.34-.29-.611-.65-.611-.362 0-.651.271-.651.61v4.539H7V20.15c0-1.495 1.293-2.71 2.882-2.71.65 0 1.245.204 1.726.543.556-.362 1.132-.543 1.726-.543Zm7.827 2.092c.9 0 1.63.687 1.63 1.533 0 .845-.73 1.532-1.63 1.532-.899 0-1.63-.687-1.63-1.532 0-.846.731-1.533 1.63-1.533Z" fill="#fff"/></g></svg>