<svg width="32" height="33" fill="none" xmlns="http://www.w3.org/2000/svg"><path d="M28.8 3.866H3.2v25.6h25.6v-25.6Z" fill="#1093D5"/><path d="M10.74 9.097c-.598-.001-1.024.23-1.288.749-.367-.55-.677-.753-1.324-.754-.58 0-1.005.164-1.317.68v-.186a.499.499 0 0 0-.498-.497l-.76-.001-.007 4.373c0 .274.223.497.497.496l.76.002.006-3.085a.76.76 0 1 1 1.517.012l-.004 2.579c0 .274.222.496.496.496l.762.002.004-3.062a.774.774 0 0 1 1.548.003l-.004 2.565c0 .275.223.497.497.497l.734.001.005-3.288c.002-.887-.665-1.581-1.623-1.582ZM21.35 9.394a3.542 3.542 0 0 0-1.317-.284c-2.066-.003-2.443 1.09-2.445 2.429-.002 1.34.371 2.433 2.438 2.436a6.146 6.146 0 0 0 1.408-.183.101.101 0 0 0 .094-.094c0-.037-.092-.747-.092-.747a.096.096 0 0 0-.093-.093 5.51 5.51 0 0 1-1.315.185c-1.081-.002-1.315-.648-1.314-1.502.002-.85.144-1.496 1.319-1.494.656.001 1.362.284 1.408.284.049.003.09-.035.094-.084v-.012c0-.038-.093-.75-.093-.75a.146.146 0 0 0-.092-.091ZM25.957 9.12l-.58-.001-.001.423c-.304-.292-.786-.424-1.225-.425-1.408-.002-2.35.745-2.352 2.429-.002 1.684.936 2.434 2.345 2.436.688.002 1.067-.265 1.228-.424.034.247.245.43.494.43l.582.001.006-4.378a.496.496 0 0 0-.497-.491Zm-1.813 3.93c-.937-.003-1.22-.566-1.219-1.502.001-.937.286-1.496 1.224-1.495.937.001 1.22.564 1.22 1.498-.002.935-.285 1.5-1.225 1.498ZM14.98 9.103c-1.409-.002-2.35.744-2.353 2.429-.002 1.684.937 2.435 2.346 2.437 1.41.002 2.347-.744 2.35-2.43.002-1.686-.934-2.434-2.342-2.436Zm-.005 3.932c-.941-.001-1.22-.564-1.22-1.501.002-.937.282-1.497 1.224-1.495.938 0 1.22.563 1.218 1.498-.002.935-.284 1.5-1.222 1.498Z" fill="#fff"/><path d="M28.8 29.466H3.2V18.154h25.6v11.313Z" fill="#00B14F"/><path d="M8.56 23.742c0 1.168.881 2.064 2.02 2.064 1.097 0 1.65-.71 1.65-1.492v-.28h-1.6v.43h1.161c.007.424-.38.919-1.211.919-.918 0-1.555-.681-1.555-1.642 0-.925.688-1.62 1.634-1.62.616 0 1.104.15 1.555.466l.03-.022v-.4c-.338-.238-.91-.467-1.6-.467-1.167 0-2.085.904-2.085 2.044Zm-.667 0c0 1.548 1.147 2.702 2.688 2.702 1.405 0 2.265-.882 2.265-2.308v-.73h-2.215v.415h1.813v.387c0 1.118-.695 1.813-1.864 1.813-1.283 0-2.236-.981-2.236-2.279 0-1.261 1.004-2.258 2.301-2.258.616 0 1.176.15 1.599.445v-.423c-.409-.294-.946-.445-1.599-.445-1.555 0-2.752 1.183-2.752 2.68Zm5.863.365v2.215h.423v-2.207c0-.495.323-.846.803-.846.143 0 .272.036.408.093a2.11 2.11 0 0 1 .186-.358c-.15-.1-.372-.165-.587-.165-.724 0-1.233.523-1.233 1.268Zm-.624 2.215h.423v-2.215c0-.874.588-1.47 1.44-1.47.288 0 .581.094.71.173.08-.094.166-.193.28-.287a1.77 1.77 0 0 0-1.01-.294c-1.125 0-1.842.76-1.842 1.885v2.208Zm6.63-2.48v.623c.251-.336.466-.63.667-.874.51-.623.954-.967 1.642-.967.932 0 1.613.702 1.613 1.691 0 .968-.667 1.706-1.584 1.706-.746 0-1.39-.508-1.541-1.204l-.301.408c.237.681.932 1.219 1.835 1.219 1.16 0 2.014-.932 2.014-2.129 0-1.211-.86-2.122-2.036-2.122-1.22 0-1.778.911-2.309 1.65Zm1.313.316h-.015l-.33.451c.058.516.581 1.205 1.37 1.205.802 0 1.383-.652 1.383-1.505 0-.853-.595-1.484-1.411-1.484-.796 0-1.255.58-1.577 1.01-.158.209-.43.545-.731.968v.688c.28-.415.659-.903.939-1.24.473-.566.76-.996 1.362-.996.587 0 .989.451.989 1.053 0 .623-.38 1.082-.954 1.082-.602 0-1.025-.551-1.025-1.168v-.064Zm-.424-3.47v1.785c.13-.1.273-.222.424-.28v-1.505h-.424Zm-.63 2.437c.129-.165.272-.344.422-.494v-1.943h-.423v2.437Zm-1.72 2.043-.008-.007c-.18.144-.473.23-.753.23-.573 0-1.003-.43-1.003-1.069 0-.61.423-1.075.99-1.075.609 0 .981.444.981 1.04v2.035h.423v-2.057c0-.831-.58-1.44-1.398-1.44-.81 0-1.433.609-1.433 1.498 0 .882.616 1.512 1.433 1.491.309-.007.624-.122.767-.222v-.424Zm-2.84-.853c0 1.247.883 2.129 2.072 2.129.265 0 .574-.079.767-.23v-.422c-.13.107-.444.229-.767.229-.974 0-1.634-.688-1.634-1.707 0-.967.703-1.691 1.634-1.691.925 0 1.6.68 1.6 1.634v2.064h.43v-2.07c0-1.19-.84-2.065-2.029-2.065-1.17 0-2.072.925-2.072 2.13Z" fill="#fff"/></svg>