<svg width="32" height="32" fill="none" xmlns="http://www.w3.org/2000/svg"><defs><radialGradient id="a" cx="0" cy="0" r="1" gradientUnits="userSpaceOnUse" gradientTransform="matrix(0 17.7561 -28.4098 0 16 16)"><stop stop-color="#004D9B"/><stop offset="1" stop-color="#002462"/></radialGradient><linearGradient id="c" x1="-13.677" y1=".916" x2="3.099" y2="38.138" gradientUnits="userSpaceOnUse"><stop stop-color="#33C3F5"/><stop offset="1" stop-color="#2241EC"/><stop offset="1" stop-color="#1D3CE7"/></linearGradient></defs><path d="M0 12.024C0 9.915 0 8.86.41 8.056A3.765 3.765 0 0 1 2.056 6.41C2.86 6 3.916 6 6.024 6h19.953c2.108 0 3.162 0 3.967.41.709.361 1.285.937 1.646 1.646.41.805.41 1.86.41 3.968v7.953c0 2.108 0 3.162-.41 3.967a3.765 3.765 0 0 1-1.646 1.646c-.805.41-1.86.41-3.967.41H6.024c-2.109 0-3.163 0-3.968-.41A3.765 3.765 0 0 1 .41 23.944C0 23.14 0 22.084 0 19.977v-7.954Z" fill="url(#a)"/><mask id="b" style="mask-type:alpha" maskUnits="userSpaceOnUse" x="0" y="6" width="32" height="20"><path fill="#fff" d="M0 6h32v20H0z"/></mask><g mask="url(#b)" fill-rule="evenodd" clip-rule="evenodd"><path d="M13.904 10.25a1.77 1.77 0 0 0-1.767 1.775c0 .98.791 1.775 1.767 1.775.975 0 1.767-.796 1.767-1.775 0-.98-.792-1.775-1.767-1.775Zm0 3.242a1.355 1.355 0 0 1-1.3-1.73h2.6a1.356 1.356 0 0 1-1.3 1.73Zm8.829-3.242c-.976 0-1.768.794-1.768 1.775 0 .98.792 1.775 1.768 1.775s1.767-.796 1.767-1.775c0-.98-.791-1.775-1.767-1.775Zm0 3.242a1.356 1.356 0 0 1-1.301-1.73h2.6a1.355 1.355 0 0 1-1.3 1.73Zm-7.216 1.72c0-.413.304-.745.762-.745.436 0 .76.281.76.744v2.173l2.498-2.636a.794.794 0 0 1 .588-.281c.385 0 .75.292.75.724 0 .261-.162.473-.496.805l-1.919 1.871 2.345 2.424c.244.242.426.463.426.764 0 .474-.375.695-.791.695-.294 0-.487-.171-.771-.473l-2.63-2.817v2.566c0 .392-.304.724-.76.724-.438 0-.762-.282-.762-.724V15.21Zm-6.22.655H8.19c-.488 0-.69-.355-.69-.7 0-.355.254-.7.69-.7h3.736c.436 0 .69.345.69.7 0 .345-.204.7-.69.7h-1.107v5.092c0 .508-.324.791-.761.791s-.762-.283-.762-.79v-5.093Zm12.71-.615c0-.504.325-.785.761-.785s.761.281.761.785v5.714c0 .502-.325.784-.76.784-.437 0-.762-.282-.762-.784v-5.714Zm-8.78 0c0-.504.324-.785.76-.785.437 0 .762.281.762.785v5.714c0 .502-.325.784-.762.784-.436 0-.76-.282-.76-.784v-5.714Z" fill="#fff"/><path d="M2.25 16C2.25 8.406 8.406 2.25 16 2.25S29.75 8.406 29.75 16c0 1.131-.137 2.246-.405 3.326A13.754 13.754 0 0 1 16 29.75C8.406 29.75 2.25 23.594 2.25 16Zm24.655 0c0-6.023-4.882-10.905-10.905-10.905S5.095 9.977 5.095 16 9.977 26.905 16 26.905a10.91 10.91 0 0 0 10.584-8.265c.213-.856.321-1.74.321-2.64Z" fill="url(#c)"/></g></svg>