<svg width="32" height="32" fill="none" xmlns="http://www.w3.org/2000/svg"><mask id="a" style="mask-type:alpha" maskUnits="userSpaceOnUse" x="0" y="6" width="32" height="20"><rect y="6" width="32" height="20" rx="1.818" fill="#fff"/></mask><g mask="url(#a)"><path opacity=".01" fill="#fff" d="M-1 4h34.04v23H-1z"/><path fill-rule="evenodd" clip-rule="evenodd" d="m9.812 10.692-2.545 6.52-1.03-5.544c-.12-.62-.598-.976-1.127-.976H.95l-.059.278c.854.188 1.824.49 2.413.815.36.198.462.371.58.841l1.95 7.644h2.584l3.961-9.578H9.812Zm3.617 0-2.023 9.578h2.445l2.022-9.578h-2.444Zm14.018 2.587.74 3.597h-2.028l1.288-3.597Zm-.36-2.587c-.468 0-.864.277-1.04.702L22.38 20.27h2.566l.51-1.43h3.136l.297 1.43h2.261l-1.974-9.578h-2.088Zm-10.547 2.99c-.018 1.38 1.213 2.15 2.14 2.607.952.47 1.271.771 1.268 1.191-.007.643-.76.927-1.464.938-1.228.02-1.942-.337-2.51-.605l-.443 2.098c.57.267 1.624.498 2.719.509 2.567 0 4.247-1.285 4.256-3.277.01-2.528-3.45-2.668-3.426-3.798.008-.342.33-.708 1.038-.8.35-.047 1.315-.084 2.41.428l.43-2.03a6.475 6.475 0 0 0-2.288-.426c-2.417 0-4.117 1.302-4.13 3.166Z" fill="#1A1F71"/></g></svg>