<svg width="32" height="33" fill="none" xmlns="http://www.w3.org/2000/svg"><path d="M0 16.666c0-8.836 7.163-16 16-16s16 7.164 16 16c0 8.837-7.163 16-16 16s-16-7.163-16-16Z" fill="#3171F6"/><path fill-rule="evenodd" clip-rule="evenodd" d="M16 6c-5.89 0-10.666 4.456-10.666 9.952 0 3.083 1.502 5.838 3.86 7.664v3.717l3.632-1.877a11.37 11.37 0 0 0 3.174.449c5.891 0 10.667-4.456 10.667-9.953C26.667 10.456 21.89 6 16 6ZM9.877 18.08c.784 0 1.516-.004 2.248.002.411.004.633.179.671.502.048.41-.191.682-.635.687-.838.01-1.675.004-2.513.004-.242 0-.485.009-.726-.005-.3-.018-.594-.077-.738-.387-.144-.311-.044-.59.155-.843l2.403-3.053c.048-.06.094-.122.14-.183-.049-.088-.127-.049-.187-.049-.561-.003-1.123 0-1.684-.004a1.573 1.573 0 0 1-.384-.044.539.539 0 0 1-.42-.525.539.539 0 0 1 .41-.533c.123-.035.256-.047.384-.047.924-.004 1.848-.004 2.772 0 .164 0 .328.004.487.059.35.12.504.444.362.786-.124.297-.322.55-.52.802-.677.862-1.357 1.722-2.036 2.583l-.189.248Zm4.18-.833c.005.178.063.418.218.626a.85.85 0 0 0 1.359 0c.29-.393.289-1.043-.002-1.434a.788.788 0 0 0-.615-.33c-.568-.034-.966.406-.96 1.138Zm1.832-1.895c.126-.158.251-.308.465-.351.407-.084.793.181.799.595.013 1.036.008 2.072.002 3.108a.611.611 0 0 1-.431.587.635.635 0 0 1-.724-.201c-.088-.11-.125-.13-.247-.03-.472.382-1.004.45-1.58.263-.922-.3-1.303-1.02-1.403-1.9-.107-.946.208-1.758 1.055-2.256.703-.414 1.417-.379 2.064.185Zm4.895 1.799c-.002.265.06.512.22.727a.851.851 0 0 0 1.344.01c.301-.392.302-1.058.005-1.453a.787.787 0 0 0-.617-.327c-.56-.03-.95.398-.952 1.043Zm-1.303.125c-.04-1.33.833-2.325 2.075-2.363 1.32-.04 2.288.846 2.327 2.14.04 1.31-.764 2.239-2.003 2.363-1.346.135-2.419-.846-2.4-2.14Zm-.454-1.03c0 .802.004 1.605-.002 2.408a.67.67 0 0 1-.844.66c-.262-.066-.457-.344-.458-.667-.002-1.373 0-2.746 0-4.118 0-.242-.004-.484 0-.726.007-.398.26-.657.642-.66.394-.004.658.255.66.668.005.812.002 1.623.002 2.434Z" fill="#fff"/></svg>