<svg width="32" height="33" fill="none" xmlns="http://www.w3.org/2000/svg"><path d="M0 16.666c0-8.836 7.163-16 16-16s16 7.164 16 16c0 8.837-7.163 16-16 16s-16-7.163-16-16Z" fill="red"/><path d="M24.177 12.715a2.167 2.167 0 0 0-1.51-1.549C21.338 10.8 16 10.8 16 10.8s-5.337 0-6.668.366a2.167 2.167 0 0 0-1.509 1.55c-.356 1.366-.356 4.217-.356 4.217s0 2.851.356 4.218a2.167 2.167 0 0 0 1.51 1.55c1.33.366 6.667.366 6.667.366s5.337 0 6.668-.367a2.167 2.167 0 0 0 1.509-1.549c.357-1.367.357-4.218.357-4.218s0-2.851-.357-4.218Z" fill="#fff"/><path d="M14.4 19.866v-5.333l4.267 2.667-4.267 2.666Z" fill="red"/></svg>